<?xml version="1.0" standalone="no"?>
<!DOCTYPE svg PUBLIC "-//W3C//DTD SVG 20010904//EN"
 "http://www.w3.org/TR/2001/REC-SVG-20010904/DTD/svg10.dtd">
<svg version="1.0" xmlns="http://www.w3.org/2000/svg"
 width="637.000000pt" height="327.000000pt" viewBox="0 0 637.000000 327.000000"
 preserveAspectRatio="xMidYMid meet">

<g transform="translate(0.000000,327.000000) scale(0.100000,-0.100000)"
fill="#4c34c8" stroke="none">


<path d="M3110 2566 c-76 -17 -122 -41 -180 -93 -59 -53 -118 -165 -122 -233
l-3 -44 48 -8 c150 -21 278 -132 317 -271 10 -34 20 -55 23 -47 42 127 73 179
141 235 53 43 152 85 202 85 l37 0 -5 49 c-10 98 -87 219 -179 276 -79 51
-190 71 -279 51z"/>
<path d="M2703 2170 c-107 -25 -212 -113 -261 -218 -24 -51 -27 -69 -27 -162
1 -95 3 -110 28 -158 55 -106 144 -180 249 -208 87 -23 94 -21 101 30 21 152
124 273 275 322 l66 21 -39 7 c-147 28 -280 172 -301 325 -6 47 -9 51 -33 50
-14 -1 -40 -4 -58 -9z"/>
<path d="M3585 2154 c-23 -120 -48 -174 -111 -244 -41 -45 -133 -95 -194 -106
l-45 -7 57 -17 c156 -47 271 -175 285 -318 l6 -54 50 5 c71 9 164 56 219 111
149 149 150 391 1 539 -55 55 -147 103 -215 113 -46 6 -47 5 -53 -22z"/>
<path d="M3176 1699 c-8 -51 -46 -127 -86 -173 -55 -63 -164 -119 -245 -128
-29 -3 -30 -4 -29 -58 1 -107 85 -225 202 -282 62 -31 73 -33 172 -33 97 0
110 2 164 30 113 57 203 182 214 296 4 48 4 49 -24 49 -74 0 -187 55 -251 122
-40 42 -82 121 -89 170 -9 53 -20 56 -28 7z"/>
<path d="M1440 776 c-76 -17 -115 -40 -151 -89 -28 -39 -30 -47 -27 -109 3
-58 8 -72 33 -99 41 -42 86 -64 185 -88 108 -27 153 -49 164 -82 23 -68 -23
-109 -125 -109 -76 0 -121 26 -144 83 l-15 37 -66 0 -66 0 7 -37 c16 -87 90
-160 187 -184 74 -18 183 -8 250 23 80 37 113 88 113 177 0 113 -47 153 -243
206 -56 15 -114 36 -127 47 -31 24 -32 59 -2 94 19 22 34 28 78 31 66 5 111
-19 133 -72 15 -35 16 -35 75 -35 l61 0 0 39 c0 116 -163 201 -320 167z"/>
<path d="M1885 757 c-3 -7 -4 -156 -3 -332 l3 -320 60 0 60 0 3 80 c3 70 6 83
29 107 l26 27 17 -22 c9 -12 38 -58 64 -102 27 -44 53 -83 60 -87 12 -9 146
-11 146 -3 0 3 -41 66 -90 141 -50 74 -94 142 -97 150 -4 11 22 43 78 100 l84
84 -70 0 -70 0 -87 -87 -88 -88 0 183 0 182 -60 0 c-40 0 -62 -4 -65 -13z"/>
<path d="M2416 762 c-2 -4 -2 -27 1 -50 l6 -42 58 0 59 0 0 50 0 50 -59 0
c-33 0 -62 -4 -65 -8z"/>
<path d="M2662 438 l3 -333 53 -3 c47 -3 53 -1 61 20 4 13 6 164 3 336 l-5
312 -58 0 -59 0 2 -332z"/>
<path d="M2905 758 c-3 -7 -4 -157 -3 -333 l3 -320 39 -3 c22 -2 50 -1 63 3
l23 5 -2 328 -3 327 -58 3 c-40 2 -59 -1 -62 -10z"/>
<path d="M3155 757 c-3 -7 -4 -156 -3 -332 l3 -320 65 0 65 0 5 219 c4 165 8
216 16 205 7 -8 67 -104 134 -214 68 -110 128 -203 134 -207 6 -4 37 -8 69 -8
53 0 58 2 68 26 6 16 8 98 5 203 -2 97 -5 236 -5 309 l-1 133 -62 -3 -63 -3
-5 -219 c-4 -191 -7 -217 -19 -202 -8 10 -65 99 -127 199 -154 249 -133 227
-210 227 -43 0 -66 -4 -69 -13z"/>
<path d="M4920 660 c0 -67 -1 -70 -24 -70 -45 0 -56 -10 -56 -51 0 -39 0 -39
40 -39 l40 0 0 -159 c0 -88 4 -171 10 -185 15 -39 60 -57 138 -54 l67 3 3 48
3 47 -34 0 c-56 0 -62 16 -62 164 l0 131 48 3 48 3 -3 42 -3 42 -48 5 c-26 3
-47 8 -47 13 0 4 0 34 0 67 l0 60 -60 0 -60 0 0 -70z"/>
<path d="M4000 587 c-65 -18 -113 -51 -143 -96 -83 -125 -47 -299 74 -366 47
-26 64 -30 130 -30 67 0 81 4 125 30 42 26 93 90 94 118 0 12 -98 8 -112 -6
-35 -34 -65 -47 -110 -47 -38 0 -54 5 -77 28 -16 15 -32 42 -36 60 l-7 32 176
0 176 0 0 44 c0 91 -44 169 -119 209 -59 32 -114 39 -171 24z m111 -97 c21
-12 49 -60 49 -85 0 -13 -15 -15 -107 -13 l-108 3 3 25 c4 40 55 80 103 80 22
0 49 -5 60 -10z"/>
<path d="M4505 591 c-107 -20 -165 -103 -131 -186 18 -41 61 -70 130 -85 137
-31 175 -55 161 -100 -9 -28 -39 -42 -93 -42 -43 0 -50 4 -82 41 -32 37 -40
41 -82 41 -57 0 -64 -14 -35 -72 28 -56 84 -87 170 -95 170 -16 285 80 245
203 -16 48 -65 77 -168 100 -113 25 -150 55 -115 94 35 38 155 18 155 -26 0
-11 14 -14 60 -14 69 0 75 11 40 68 -36 58 -154 92 -255 73z"/>
<path d="M2422 582 c-9 -7 -12 -62 -10 -243 l3 -234 60 0 60 0 3 236 2 237
-22 6 c-32 8 -81 7 -96 -2z"/>
</g>
</svg>
